<?xml version="1.0" encoding="UTF-8"?>
<svg id="Layer_1" xmlns="http://www.w3.org/2000/svg" version="1.1" viewBox="0 0 1504.03564 355.54483">
  <!-- Generator: Adobe Illustrator 29.6.1, SVG Export Plug-In . SVG Version: 2.1.1 Build 9)  -->
  <defs>
    <style>
      .st0 {
        fill: #3e71de;
      }
    </style>
  </defs>
  <path class="st0" d="M220.66143,165.80682v76.38255s0-1.12856,0,2.43921v8.0922c-2.69099,40.94994-34.73499,44.94471-34.73499,44.94471h-86.65432c-27.33541,0-40.07027-29.01092-40.07027-45.76511v-86.09355H0v105.72331c0,56.63699,64.46878,84.0147,140.39469,84.0147,79.54046,0,136.77759-28.45252,136.77759-84.0147v-105.72331h-56.51085Z"/>
  <g>
    <polygon points="607.43896 169.75655 510.90234 169.75655 510.90234 87.08467 462.6875 87.08467 462.6875 291.32979 510.90234 291.32979 510.90234 212.01875 607.43896 212.01875 607.43896 291.32979 655.34912 291.32979 655.34912 87.08467 607.43896 87.08467 607.43896 169.75655"/>
    <path d="M756.8208,142.01338c-23.91309,0-44.48535,7.72412-59.49316,22.3374-14.24463,13.87061-22.08936,32.94873-22.08936,53.72021,0,44.78271,33.67285,76.06006,81.88623,76.06006,24.32422,0,45.11719-7.68555,60.13086-22.22559,14.22461-13.77588,22.05859-32.89453,22.05859-53.83447,0-20.72168-8.01465-39.80859-22.56934-53.74365-15.02832-14.38916-36.30957-22.31396-59.92383-22.31396ZM793.83838,218.071c0,18.21729-11.35254,36.59912-36.71387,36.59912s-36.7124-18.38184-36.7124-36.59912c0-17.76123,11.48828-36.87744,36.7124-36.87744,22.98047,0,36.71387,18.75,36.71387,36.87744Z"/>
    <path d="M1032.01709,142.8542c-21.55078,0-37.47656,6.94092-49.59668,21.74023-8.96387-14.44043-24.68652-22.30225-44.97754-22.30225-6.17285,0-24.76367,1.08789-37.04688,13.24707l-1.79004-11.00293h-41.83203v146.51221h45.1709v-78.02051c0-15.26367,9.58203-30.71533,27.89551-30.71533,18.42773,0,26.67676,15.42676,26.67676,30.71533v78.02051h45.17285v-78.02051c0-14.98389,9.79102-30.15283,28.50293-30.15283,21.88281,0,24.24609,20.69531,24.24609,29.59326v78.58008h45.17285v-78.58008c0-44.89111-24.00488-69.61426-67.59473-69.61426Z"/>
    <path d="M1206.25049,140.61299c-24.63965,0-45.67285,7.42188-60.8252,21.46338-14.75684,13.67383-22.88379,33.16211-22.88379,54.875,0,23.12402,8,42.64014,23.13672,56.43848,15.28516,13.93506,37.17773,21.30078,63.31055,21.30078,20.62598,0,49.12695-6.18359,67.25977-23.53906l3.125-2.99072-29.70117-27.02002-2.72168,2.59619c-8.01367,7.64746-25.22656,11.77393-37.35449,11.77393-20.55371,0-35.24512-8.06152-39.63281-21.35156h115.65625l.36816-3.62891c2.87109-28.26855-2.90234-50.60352-17.16113-66.38428-13.91113-15.39551-35.5498-23.5332-62.57617-23.5332ZM1171.43408,197.78047c6.00684-12.0415,18.82715-18.82861,36.0332-18.82861,10.90527,0,28.9541,2.57275,33.93359,18.82861h-69.9668Z"/>
    <path d="M1456.12451,87.08467v116.41455c0,31.80859-17.48242,50.05127-47.96484,50.05127-32.41504,0-51.00586-18.24268-51.00586-50.05127v-116.41455h-47.90918v116.41455c0,28.9248,10.22363,52.82617,29.56543,69.11963,17.32617,14.5957,41.84766,22.63428,69.04688,22.63428,28.17773,0,51.98145-8.00098,68.83887-23.1377,17.88574-16.06152,27.33984-39.78857,27.33984-68.61621v-116.41455h-47.91113Z"/>
  </g>
  <polygon class="st0" points="0 125.44193 277.17228 125.44193 277.17228 88.80277 138.58614 0 0 87.90577 0 125.44193"/>
</svg>