<svg width="200" height="47" viewBox="0 0 200 47" fill="none" xmlns="http://www.w3.org/2000/svg">
<g clip-path="url(#clip0_5307_6725)">
<path d="M29.3426 21.9183V32.0154C29.3426 32.0154 29.3426 31.8662 29.3426 32.3378V33.4075C28.9847 38.8208 24.7237 39.3488 24.7237 39.3488H13.2008C9.56582 39.3488 7.8724 35.5138 7.8724 33.2991V21.9183H0V35.894C0 43.3809 8.57277 47 18.6691 47C29.246 47 36.8571 43.2388 36.8571 35.894V21.9183H29.3426Z" fill="#3E71DE"/>
<path d="M80.7758 22.4404H67.9387V11.5118H61.5273V38.5113H67.9387V28.0271H80.7758V38.5113H87.1466V11.5118H80.7758V22.4404Z" fill="white"/>
<path d="M100.641 18.7729C97.4616 18.7729 94.726 19.794 92.7303 21.7258C90.8361 23.5593 89.793 26.0813 89.793 28.8271C89.793 34.747 94.2706 38.8816 100.682 38.8816C103.916 38.8816 106.681 37.8656 108.678 35.9436C110.569 34.1225 111.611 31.5952 111.611 28.8271C111.611 26.0879 110.545 23.5648 108.61 21.7227C106.611 19.8205 103.782 18.7729 100.641 18.7729ZM105.564 28.8271C105.564 31.2353 104.054 33.6652 100.682 33.6652C97.3094 33.6652 95.8 31.2353 95.8 28.8271C95.8 26.4792 97.3276 23.9522 100.682 23.9522C103.738 23.9522 105.564 26.4308 105.564 28.8271Z" fill="white"/>
<path d="M137.233 18.8841C134.367 18.8841 132.249 19.8016 130.638 21.758C129.446 19.8491 127.355 18.8098 124.657 18.8098C123.836 18.8098 121.364 18.9536 119.73 20.561L119.492 19.1065H113.93V38.4741H119.936V28.1605C119.936 26.1428 121.21 24.1002 123.646 24.1002C126.096 24.1002 127.193 26.1395 127.193 28.1605V38.4741H133.2V28.1605C133.2 26.1797 134.502 24.1745 136.99 24.1745C139.9 24.1745 140.214 26.9103 140.214 28.0865V38.4741H146.221V28.0865C146.221 22.1523 143.029 18.8841 137.233 18.8841Z" fill="white"/>
<path d="M160.405 18.5878C157.128 18.5878 154.331 19.5689 152.316 21.425C150.354 23.2326 149.273 25.8088 149.273 28.6791C149.273 31.7359 150.337 34.3157 152.35 36.1397C154.383 37.9818 157.294 38.9555 160.769 38.9555C163.512 38.9555 167.301 38.1381 169.713 35.8439L170.128 35.4485L166.179 31.8767L165.817 32.2199C164.751 33.2308 162.462 33.7763 160.85 33.7763C158.116 33.7763 156.163 32.7106 155.579 30.9538H170.959L171.008 30.4741C171.39 26.7372 170.622 23.7847 168.726 21.6987C166.876 19.6635 163.999 18.5878 160.405 18.5878ZM155.775 26.1448C156.574 24.553 158.279 23.6558 160.566 23.6558C162.017 23.6558 164.417 23.9959 165.079 26.1448H155.775Z" fill="white"/>
<path d="M193.629 11.5118V26.9009C193.629 31.1057 191.304 33.5172 187.251 33.5172C182.941 33.5172 180.468 31.1057 180.468 26.9009V11.5118H174.098V26.9009C174.098 30.7245 175.457 33.884 178.029 36.0379C180.333 37.9673 183.594 39.0299 187.211 39.0299C190.958 39.0299 194.123 37.9723 196.365 35.9713C198.743 33.8481 200 30.7116 200 26.9009V11.5118H193.629Z" fill="white"/>
<path d="M0 16.5824H36.8571V11.739L18.4286 0L0 11.6204V16.5824Z" fill="#3E71DE"/>
</g>
<defs>
<clipPath id="clip0_5307_6725">
<rect width="200" height="47" fill="white"/>
</clipPath>
</defs>
</svg>
